<svg width="460" height="102" viewBox="0 0 460 102" fill="none" xmlns="http://www.w3.org/2000/svg">
<path d="M0.169828 99V2.39999H13.2798V86.442H66.1338V99H0.169828ZM79.412 2.39999H146.066V14.958H92.522V43.248H140.408V55.944H92.522V86.442H146.066V99H79.412V2.39999ZM207.326 0.329995C235.34 0.329995 256.04 22.962 256.04 50.976C256.04 78.714 235.34 101.07 207.326 101.07C178.622 101.07 158.06 78.714 158.06 50.976C158.06 22.962 178.76 0.329995 207.326 0.329995ZM207.188 88.512C228.026 88.512 242.93 72.642 242.93 50.976C242.93 29.31 227.75 12.888 207.188 12.888C186.488 12.888 171.17 29.31 171.17 50.976C171.17 72.642 186.35 88.512 207.188 88.512ZM271.049 2.39999H287.885L340.877 81.198V2.39999H353.987V99H338.255L284.297 18.96V99H271.049V2.39999ZM364.94 99L404.546 2.39999H419.864L459.47 99H444.98L434.078 71.814H390.332L379.292 99H364.94ZM412.136 17.58L395.3 59.256H428.972L412.136 17.58Z" fill="white"/>
</svg>
